<?xml version="1.0" encoding="utf-8"?>
<!-- Generator: Adobe Illustrator 20.1.0, SVG Export Plug-In . SVG Version: 6.00 Build 0)  -->
<svg version="1.1" id="圖層_1" xmlns="http://www.w3.org/2000/svg" xmlns:xlink="http://www.w3.org/1999/xlink" x="0px" y="0px"
	 viewBox="0 0 960 560" style="enable-background:new 0 0 960 560;" xml:space="preserve">
<style type="text/css">
	.st0{fill:#FFAF45;}
	.st1{fill:#FFFA40;}
	.st2{fill:#F2F2F2;}
</style>
<g>
	<polygon class="st0" points="120.1,68.9 135.5,108.1 177.1,101.8 150.9,134.8 177.1,167.7 135.5,161.4 120.1,200.7 104.7,161.4 
		63,167.7 89.3,134.8 63,101.8 104.7,108.1 	"/>
</g>
<g>
	<polygon class="st1" points="120,164.9 87.7,190.6 93.9,149.8 55.5,134.7 94,119.7 87.9,78.8 120.1,104.6 152.4,78.9 146.2,119.7 
		184.6,134.8 146.2,149.9 152.3,190.7 	"/>
	<path class="st2" d="M88.6,80l30.9,24.7l0.6,0.5l0.6-0.5l31-24.6l-5.9,39.1l-0.1,0.8l0.7,0.3l36.8,14.5l-36.9,14.4l-0.7,0.3
		l0.1,0.8l5.8,39.2l-30.9-24.7l-0.6-0.5l-0.6,0.5l-31,24.6l5.9-39.1l0.1-0.8l-0.7-0.3l-36.8-14.5l36.9-14.4l0.7-0.3l-0.1-0.8
		L88.6,80 M87.2,77.7l6.2,41.7l-39.2,15.4l39.2,15.5l-6.3,41.7l33-26.2l32.9,26.3l-6.2-41.7l39.2-15.4l-39.2-15.5l6.3-41.7l-33,26.2
		L87.2,77.7L87.2,77.7z"/>
</g>
</svg>
